<?xml version='1.0' encoding='UTF-8'?>
<svg width="73mm" height="73mm" version="1.1" viewBox="0 0 73 73" xmlns="http://www.w3.org/2000/svg" role="img" aria-labelledby="nrs-qr-title nrs-qr-desc" fill="#11171a"><title id="nrs-qr-title">QR-код: запись Георгия Петрова в НРС НОСТРОЙ</title><desc id="nrs-qr-desc">Откройте камерой телефона или нажмите на QR-код на сайте.</desc><rect width="100%" height="100%" fill="#ffffff"/><path d="M4,4H5V5H4zM5,4H6V5H5zM6,4H7V5H6zM7,4H8V5H7zM8,4H9V5H8zM9,4H10V5H9zM10,4H11V5H10zM13,4H14V5H13zM15,4H16V5H15zM17,4H18V5H17zM18,4H19V5H18zM20,4H21V5H20zM26,4H27V5H26zM28,4H29V5H28zM29,4H30V5H29zM31,4H32V5H31zM32,4H33V5H32zM33,4H34V5H33zM34,4H35V5H34zM35,4H36V5H35zM36,4H37V5H36zM38,4H39V5H38zM41,4H42V5H41zM42,4H43V5H42zM43,4H44V5H43zM44,4H45V5H44zM45,4H46V5H45zM48,4H49V5H48zM49,4H50V5H49zM51,4H52V5H51zM54,4H55V5H54zM56,4H57V5H56zM57,4H58V5H57zM59,4H60V5H59zM62,4H63V5H62zM63,4H64V5H63zM64,4H65V5H64zM65,4H66V5H65zM66,4H67V5H66zM67,4H68V5H67zM68,4H69V5H68zM4,5H5V6H4zM10,5H11V6H10zM14,5H15V6H14zM15,5H16V6H15zM16,5H17V6H16zM17,5H18V6H17zM18,5H19V6H18zM19,5H20V6H19zM21,5H22V6H21zM22,5H23V6H22zM23,5H24V6H23zM28,5H29V6H28zM32,5H33V6H32zM35,5H36V6H35zM37,5H38V6H37zM39,5H40V6H39zM44,5H45V6H44zM46,5H47V6H46zM47,5H48V6H47zM48,5H49V6H48zM49,5H50V6H49zM50,5H51V6H50zM54,5H55V6H54zM55,5H56V6H55zM60,5H61V6H60zM62,5H63V6H62zM68,5H69V6H68zM4,6H5V7H4zM6,6H7V7H6zM7,6H8V7H7zM8,6H9V7H8zM10,6H11V7H10zM12,6H13V7H12zM13,6H14V7H13zM15,6H16V7H15zM17,6H18V7H17zM18,6H19V7H18zM20,6H21V7H20zM21,6H22V7H21zM24,6H25V7H24zM26,6H27V7H26zM29,6H30V7H29zM31,6H32V7H31zM32,6H33V7H32zM33,6H34V7H33zM34,6H35V7H34zM35,6H36V7H35zM38,6H39V7H38zM41,6H42V7H41zM43,6H44V7H43zM44,6H45V7H44zM45,6H46V7H45zM48,6H49V7H48zM50,6H51V7H50zM51,6H52V7H51zM56,6H57V7H56zM58,6H59V7H58zM60,6H61V7H60zM62,6H63V7H62zM64,6H65V7H64zM65,6H66V7H65zM66,6H67V7H66zM68,6H69V7H68zM4,7H5V8H4zM6,7H7V8H6zM7,7H8V8H7zM8,7H9V8H8zM10,7H11V8H10zM12,7H13V8H12zM14,7H15V8H14zM17,7H18V8H17zM18,7H19V8H18zM19,7H20V8H19zM21,7H22V8H21zM23,7H24V8H23zM25,7H26V8H25zM28,7H29V8H28zM31,7H32V8H31zM32,7H33V8H32zM37,7H38V8H37zM38,7H39V8H38zM40,7H41V8H40zM41,7H42V8H41zM45,7H46V8H45zM48,7H49V8H48zM50,7H51V8H50zM51,7H52V8H51zM52,7H53V8H52zM54,7H55V8H54zM58,7H59V8H58zM59,7H60V8H59zM62,7H63V8H62zM64,7H65V8H64zM65,7H66V8H65zM66,7H67V8H66zM68,7H69V8H68zM4,8H5V9H4zM6,8H7V9H6zM7,8H8V9H7zM8,8H9V9H8zM10,8H11V9H10zM12,8H13V9H12zM13,8H14V9H13zM15,8H16V9H15zM19,8H20V9H19zM20,8H21V9H20zM22,8H23V9H22zM25,8H26V9H25zM27,8H28V9H27zM28,8H29V9H28zM29,8H30V9H29zM31,8H32V9H31zM34,8H35V9H34zM35,8H36V9H35zM36,8H37V9H36zM37,8H38V9H37zM38,8H39V9H38zM39,8H40V9H39zM44,8H45V9H44zM45,8H46V9H45zM46,8H47V9H46zM47,8H48V9H47zM48,8H49V9H48zM51,8H52V9H51zM53,8H54V9H53zM56,8H57V9H56zM57,8H58V9H57zM60,8H61V9H60zM62,8H63V9H62zM64,8H65V9H64zM65,8H66V9H65zM66,8H67V9H66zM68,8H69V9H68zM4,9H5V10H4zM10,9H11V10H10zM12,9H13V10H12zM13,9H14V10H13zM17,9H18V10H17zM18,9H19V10H18zM20,9H21V10H20zM21,9H22V10H21zM23,9H24V10H23zM25,9H26V10H25zM28,9H29V10H28zM31,9H32V10H31zM32,9H33V10H32zM33,9H34V10H33zM34,9H35V10H34zM38,9H39V10H38zM40,9H41V10H40zM42,9H43V10H42zM43,9H44V10H43zM44,9H45V10H44zM45,9H46V10H45zM48,9H49V10H48zM50,9H51V10H50zM53,9H54V10H53zM54,9H55V10H54zM55,9H56V10H55zM56,9H57V10H56zM58,9H59V10H58zM62,9H63V10H62zM68,9H69V10H68zM4,10H5V11H4zM5,10H6V11H5zM6,10H7V11H6zM7,10H8V11H7zM8,10H9V11H8zM9,10H10V11H9zM10,10H11V11H10zM12,10H13V11H12zM14,10H15V11H14zM16,10H17V11H16zM18,10H19V11H18zM20,10H21V11H20zM22,10H23V11H22zM24,10H25V11H24zM26,10H27V11H26zM28,10H29V11H28zM30,10H31V11H30zM32,10H33V11H32zM34,10H35V11H34zM36,10H37V11H36zM38,10H39V11H38zM40,10H41V11H40zM42,10H43V11H42zM44,10H45V11H44zM46,10H47V11H46zM48,10H49V11H48zM50,10H51V11H50zM52,10H53V11H52zM54,10H55V11H54zM56,10H57V11H56zM58,10H59V11H58zM60,10H61V11H60zM62,10H63V11H62zM63,10H64V11H63zM64,10H65V11H64zM65,10H66V11H65zM66,10H67V11H66zM67,10H68V11H67zM68,10H69V11H68zM12,11H13V12H12zM13,11H14V12H13zM14,11H15V12H14zM16,11H17V12H16zM19,11H20V12H19zM20,11H21V12H20zM21,11H22V12H21zM23,11H24V12H23zM24,11H25V12H24zM25,11H26V12H25zM30,11H31V12H30zM31,11H32V12H31zM32,11H33V12H32zM34,11H35V12H34zM38,11H39V12H38zM40,11H41V12H40zM41,11H42V12H41zM42,11H43V12H42zM47,11H48V12H47zM49,11H50V12H49zM50,11H51V12H50zM51,11H52V12H51zM53,11H54V12H53zM56,11H57V12H56zM58,11H59V12H58zM60,11H61V12H60zM4,12H5V13H4zM6,12H7V13H6zM7,12H8V13H7zM8,12H9V13H8zM9,12H10V13H9zM10,12H11V13H10zM13,12H14V13H13zM21,12H22V13H21zM25,12H26V13H25zM28,12H29V13H28zM29,12H30V13H29zM31,12H32V13H31zM32,12H33V13H32zM33,12H34V13H33zM34,12H35V13H34zM35,12H36V13H35zM36,12H37V13H36zM37,12H38V13H37zM38,12H39V13H38zM39,12H40V13H39zM40,12H41V13H40zM42,12H43V13H42zM43,12H44V13H43zM45,12H46V13H45zM46,12H47V13H46zM48,12H49V13H48zM51,12H52V13H51zM52,12H53V13H52zM54,12H55V13H54zM55,12H56V13H55zM59,12H60V13H59zM62,12H63V13H62zM63,12H64V13H63zM64,12H65V13H64zM65,12H66V13H65zM66,12H67V13H66zM4,13H5V14H4zM7,13H8V14H7zM11,13H12V14H11zM12,13H13V14H12zM14,13H15V14H14zM17,13H18V14H17zM20,13H21V14H20zM21,13H22V14H21zM26,13H27V14H26zM28,13H29V14H28zM30,13H31V14H30zM31,13H32V14H31zM35,13H36V14H35zM39,13H40V14H39zM41,13H42V14H41zM42,13H43V14H42zM43,13H44V14H43zM44,13H45V14H44zM47,13H48V14H47zM48,13H49V14H48zM51,13H52V14H51zM53,13H54V14H53zM57,13H58V14H57zM58,13H59V14H58zM60,13H61V14H60zM61,13H62V14H61zM63,13H64V14H63zM64,13H65V14H64zM5,14H6V15H5zM6,14H7V15H6zM8,14H9V15H8zM9,14H10V15H9zM10,14H11V15H10zM12,14H13V15H12zM14,14H15V15H14zM16,14H17V15H16zM20,14H21V15H20zM22,14H23V15H22zM23,14H24V15H23zM25,14H26V15H25zM27,14H28V15H27zM32,14H33V15H32zM38,14H39V15H38zM40,14H41V15H40zM41,14H42V15H41zM43,14H44V15H43zM48,14H49V15H48zM49,14H50V15H49zM50,14H51V15H50zM53,14H54V15H53zM54,14H55V15H54zM55,14H56V15H55zM56,14H57V15H56zM59,14H60V15H59zM60,14H61V15H60zM62,14H63V15H62zM65,14H66V15H65zM66,14H67V15H66zM67,14H68V15H67zM68,14H69V15H68zM14,15H15V16H14zM16,15H17V16H16zM19,15H20V16H19zM22,15H23V16H22zM23,15H24V16H23zM29,15H30V16H29zM30,15H31V16H30zM31,15H32V16H31zM33,15H34V16H33zM34,15H35V16H34zM35,15H36V16H35zM37,15H38V16H37zM38,15H39V16H38zM39,15H40V16H39zM42,15H43V16H42zM43,15H44V16H43zM45,15H46V16H45zM47,15H48V16H47zM50,15H51V16H50zM51,15H52V16H51zM54,15H55V16H54zM56,15H57V16H56zM57,15H58V16H57zM63,15H64V16H63zM64,15H65V16H64zM68,15H69V16H68zM6,16H7V17H6zM7,16H8V17H7zM10,16H11V17H10zM11,16H12V17H11zM13,16H14V17H13zM16,16H17V17H16zM17,16H18V17H17zM18,16H19V17H18zM19,16H20V17H19zM20,16H21V17H20zM21,16H22V17H21zM22,16H23V17H22zM23,16H24V17H23zM24,16H25V17H24zM25,16H26V17H25zM26,16H27V17H26zM27,16H28V17H27zM28,16H29V17H28zM31,16H32V17H31zM32,16H33V17H32zM34,16H35V17H34zM36,16H37V17H36zM37,16H38V17H37zM38,16H39V17H38zM39,16H40V17H39zM40,16H41V17H40zM41,16H42V17H41zM42,16H43V17H42zM43,16H44V17H43zM44,16H45V17H44zM48,16H49V17H48zM51,16H52V17H51zM52,16H53V17H52zM54,16H55V17H54zM55,16H56V17H55zM57,16H58V17H57zM60,16H61V17H60zM61,16H62V17H61zM66,16H67V17H66zM67,16H68V17H67zM5,17H6V18H5zM6,17H7V18H6zM7,17H8V18H7zM9,17H10V18H9zM14,17H15V18H14zM16,17H17V18H16zM17,17H18V18H17zM20,17H21V18H20zM26,17H27V18H26zM27,17H28V18H27zM28,17H29V18H28zM30,17H31V18H30zM33,17H34V18H33zM34,17H35V18H34zM35,17H36V18H35zM36,17H37V18H36zM39,17H40V18H39zM41,17H42V18H41zM43,17H44V18H43zM44,17H45V18H44zM47,17H48V18H47zM48,17H49V18H48zM51,17H52V18H51zM53,17H54V18H53zM54,17H55V18H54zM60,17H61V18H60zM63,17H64V18H63zM66,17H67V18H66zM67,17H68V18H67zM4,18H5V19H4zM5,18H6V19H5zM6,18H7V19H6zM9,18H10V19H9zM10,18H11V19H10zM11,18H12V19H11zM15,18H16V19H15zM23,18H24V19H23zM25,18H26V19H25zM28,18H29V19H28zM30,18H31V19H30zM31,18H32V19H31zM32,18H33V19H32zM33,18H34V19H33zM37,18H38V19H37zM38,18H39V19H38zM40,18H41V19H40zM41,18H42V19H41zM43,18H44V19H43zM45,18H46V19H45zM48,18H49V19H48zM50,18H51V19H50zM54,18H55V19H54zM55,18H56V19H55zM58,18H59V19H58zM59,18H60V19H59zM60,18H61V19H60zM62,18H63V19H62zM64,18H65V19H64zM65,18H66V19H65zM66,18H67V19H66zM68,18H69V19H68zM4,19H5V20H4zM6,19H7V20H6zM9,19H10V20H9zM16,19H17V20H16zM17,19H18V20H17zM19,19H20V20H19zM23,19H24V20H23zM24,19H25V20H24zM26,19H27V20H26zM27,19H28V20H27zM28,19H29V20H28zM29,19H30V20H29zM31,19H32V20H31zM33,19H34V20H33zM35,19H36V20H35zM37,19H38V20H37zM40,19H41V20H40zM41,19H42V20H41zM42,19H43V20H42zM47,19H48V20H47zM51,19H52V20H51zM54,19H55V20H54zM55,19H56V20H55zM56,19H57V20H56zM57,19H58V20H57zM58,19H59V20H58zM60,19H61V20H60zM62,19H63V20H62zM64,19H65V20H64zM66,19H67V20H66zM67,19H68V20H67zM68,19H69V20H68zM9,20H10V21H9zM10,20H11V21H10zM13,20H14V21H13zM14,20H15V21H14zM15,20H16V21H15zM16,20H17V21H16zM22,20H23V21H22zM25,20H26V21H25zM28,20H29V21H28zM32,20H33V21H32zM33,20H34V21H33zM38,20H39V21H38zM39,20H40V21H39zM40,20H41V21H40zM41,20H42V21H41zM44,20H45V21H44zM47,20H48V21H47zM51,20H52V21H51zM52,20H53V21H52zM53,20H54V21H53zM54,20H55V21H54zM56,20H57V21H56zM57,20H58V21H57zM60,20H61V21H60zM61,20H62V21H61zM62,20H63V21H62zM68,20H69V21H68zM7,21H8V22H7zM8,21H9V22H8zM9,21H10V22H9zM12,21H13V22H12zM13,21H14V22H13zM14,21H15V22H14zM15,21H16V22H15zM24,21H25V22H24zM25,21H26V22H25zM27,21H28V22H27zM30,21H31V22H30zM31,21H32V22H31zM34,21H35V22H34zM35,21H36V22H35zM36,21H37V22H36zM37,21H38V22H37zM38,21H39V22H38zM39,21H40V22H39zM41,21H42V22H41zM44,21H45V22H44zM45,21H46V22H45zM47,21H48V22H47zM50,21H51V22H50zM54,21H55V22H54zM56,21H57V22H56zM57,21H58V22H57zM58,21H59V22H58zM60,21H61V22H60zM63,21H64V22H63zM65,21H66V22H65zM8,22H9V23H8zM10,22H11V23H10zM13,22H14V23H13zM14,22H15V23H14zM16,22H17V23H16zM17,22H18V23H17zM23,22H24V23H23zM27,22H28V23H27zM31,22H32V23H31zM32,22H33V23H32zM36,22H37V23H36zM37,22H38V23H37zM38,22H39V23H38zM41,22H42V23H41zM42,22H43V23H42zM44,22H45V23H44zM47,22H48V23H47zM48,22H49V23H48zM51,22H52V23H51zM53,22H54V23H53zM54,22H55V23H54zM55,22H56V23H55zM56,22H57V23H56zM59,22H60V23H59zM60,22H61V23H60zM62,22H63V23H62zM67,22H68V23H67zM68,22H69V23H68zM4,23H5V24H4zM9,23H10V24H9zM14,23H15V24H14zM16,23H17V24H16zM17,23H18V24H17zM22,23H23V24H22zM24,23H25V24H24zM26,23H27V24H26zM27,23H28V24H27zM28,23H29V24H28zM29,23H30V24H29zM30,23H31V24H30zM34,23H35V24H34zM36,23H37V24H36zM39,23H40V24H39zM40,23H41V24H40zM43,23H44V24H43zM44,23H45V24H44zM49,23H50V24H49zM51,23H52V24H51zM52,23H53V24H52zM56,23H57V24H56zM57,23H58V24H57zM58,23H59V24H58zM60,23H61V24H60zM62,23H63V24H62zM63,23H64V24H63zM64,23H65V24H64zM65,23H66V24H65zM68,23H69V24H68zM6,24H7V25H6zM7,24H8V25H7zM8,24H9V25H8zM9,24H10V25H9zM10,24H11V25H10zM11,24H12V25H11zM13,24H14V25H13zM15,24H16V25H15zM16,24H17V25H16zM17,24H18V25H17zM18,24H19V25H18zM20,24H21V25H20zM21,24H22V25H21zM24,24H25V25H24zM25,24H26V25H25zM27,24H28V25H27zM28,24H29V25H28zM29,24H30V25H29zM30,24H31V25H30zM35,24H36V25H35zM37,24H38V25H37zM38,24H39V25H38zM41,24H42V25H41zM42,24H43V25H42zM43,24H44V25H43zM45,24H46V25H45zM47,24H48V25H47zM50,24H51V25H50zM53,24H54V25H53zM54,24H55V25H54zM55,24H56V25H55zM57,24H58V25H57zM59,24H60V25H59zM60,24H61V25H60zM63,24H64V25H63zM66,24H67V25H66zM67,24H68V25H67zM68,24H69V25H68zM4,25H5V26H4zM6,25H7V26H6zM7,25H8V26H7zM8,25H9V26H8zM9,25H10V26H9zM11,25H12V26H11zM13,25H14V26H13zM15,25H16V26H15zM17,25H18V26H17zM19,25H20V26H19zM20,25H21V26H20zM21,25H22V26H21zM28,25H29V26H28zM30,25H31V26H30zM35,25H36V26H35zM36,25H37V26H36zM37,25H38V26H37zM38,25H39V26H38zM40,25H41V26H40zM42,25H43V26H42zM45,25H46V26H45zM46,25H47V26H46zM48,25H49V26H48zM49,25H50V26H49zM52,25H53V26H52zM54,25H55V26H54zM60,25H61V26H60zM63,25H64V26H63zM66,25H67V26H66zM67,25H68V26H67zM68,25H69V26H68zM4,26H5V27H4zM6,26H7V27H6zM8,26H9V27H8zM9,26H10V27H9zM10,26H11V27H10zM13,26H14V27H13zM15,26H16V27H15zM17,26H18V27H17zM20,26H21V27H20zM21,26H22V27H21zM24,26H25V27H24zM26,26H27V27H26zM28,26H29V27H28zM30,26H31V27H30zM31,26H32V27H31zM33,26H34V27H33zM36,26H37V27H36zM38,26H39V27H38zM39,26H40V27H39zM40,26H41V27H40zM41,26H42V27H41zM43,26H44V27H43zM44,26H45V27H44zM46,26H47V27H46zM51,26H52V27H51zM52,26H53V27H52zM53,26H54V27H53zM55,26H56V27H55zM56,26H57V27H56zM62,26H63V27H62zM63,26H64V27H63zM64,26H65V27H64zM65,26H66V27H65zM68,26H69V27H68zM8,27H9V28H8zM12,27H13V28H12zM13,27H14V28H13zM14,27H15V28H14zM16,27H17V28H16zM17,27H18V28H17zM18,27H19V28H18zM21,27H22V28H21zM24,27H25V28H24zM26,27H27V28H26zM27,27H28V28H27zM28,27H29V28H28zM29,27H30V28H29zM31,27H32V28H31zM32,27H33V28H32zM34,27H35V28H34zM37,27H38V28H37zM38,27H39V28H38zM39,27H40V28H39zM42,27H43V28H42zM44,27H45V28H44zM47,27H48V28H47zM49,27H50V28H49zM55,27H56V28H55zM56,27H57V28H56zM58,27H59V28H58zM59,27H60V28H59zM60,27H61V28H60zM61,27H62V28H61zM64,27H65V28H64zM65,27H66V28H65zM67,27H68V28H67zM68,27H69V28H68zM4,28H5V29H4zM5,28H6V29H5zM6,28H7V29H6zM7,28H8V29H7zM8,28H9V29H8zM9,28H10V29H9zM10,28H11V29H10zM11,28H12V29H11zM12,28H13V29H12zM16,28H17V29H16zM17,28H18V29H17zM18,28H19V29H18zM21,28H22V29H21zM24,28H25V29H24zM26,28H27V29H26zM28,28H29V29H28zM29,28H30V29H29zM30,28H31V29H30zM32,28H33V29H32zM34,28H35V29H34zM35,28H36V29H35zM36,28H37V29H36zM38,28H39V29H38zM39,28H40V29H39zM41,28H42V29H41zM42,28H43V29H42zM44,28H45V29H44zM45,28H46V29H45zM50,28H51V29H50zM51,28H52V29H51zM52,28H53V29H52zM53,28H54V29H53zM54,28H55V29H54zM55,28H56V29H55zM57,28H58V29H57zM59,28H60V29H59zM63,28H64V29H63zM66,28H67V29H66zM67,28H68V29H67zM68,28H69V29H68zM5,29H6V30H5zM6,29H7V30H6zM7,29H8V30H7zM8,29H9V30H8zM9,29H10V30H9zM15,29H16V30H15zM16,29H17V30H16zM17,29H18V30H17zM18,29H19V30H18zM19,29H20V30H19zM20,29H21V30H20zM21,29H22V30H21zM25,29H26V30H25zM27,29H28V30H27zM30,29H31V30H30zM37,29H38V30H37zM40,29H41V30H40zM45,29H46V30H45zM46,29H47V30H46zM47,29H48V30H47zM49,29H50V30H49zM54,29H55V30H54zM58,29H59V30H58zM59,29H60V30H59zM60,29H61V30H60zM61,29H62V30H61zM65,29H66V30H65zM66,29H67V30H66zM67,29H68V30H67zM68,29H69V30H68zM4,30H5V31H4zM6,30H7V31H6zM7,30H8V31H7zM9,30H10V31H9zM10,30H11V31H10zM12,30H13V31H12zM14,30H15V31H14zM15,30H16V31H15zM16,30H17V31H16zM20,30H21V31H20zM23,30H24V31H23zM24,30H25V31H24zM26,30H27V31H26zM28,30H29V31H28zM31,30H32V31H31zM33,30H34V31H33zM34,30H35V31H34zM35,30H36V31H35zM42,30H43V31H42zM43,30H44V31H43zM46,30H47V31H46zM51,30H52V31H51zM52,30H53V31H52zM53,30H54V31H53zM56,30H57V31H56zM59,30H60V31H59zM62,30H63V31H62zM63,30H64V31H63zM4,31H5V32H4zM9,31H10V32H9zM12,31H13V32H12zM13,31H14V32H13zM14,31H15V32H14zM18,31H19V32H18zM20,31H21V32H20zM23,31H24V32H23zM25,31H26V32H25zM26,31H27V32H26zM29,31H30V32H29zM30,31H31V32H30zM33,31H34V32H33zM34,31H35V32H34zM36,31H37V32H36zM37,31H38V32H37zM38,31H39V32H38zM44,31H45V32H44zM46,31H47V32H46zM48,31H49V32H48zM49,31H50V32H49zM56,31H57V32H56zM63,31H64V32H63zM64,31H65V32H64zM67,31H68V32H67zM4,32H5V33H4zM5,32H6V33H5zM8,32H9V33H8zM9,32H10V33H9zM10,32H11V33H10zM11,32H12V33H11zM16,32H17V33H16zM22,32H23V33H22zM23,32H24V33H23zM25,32H26V33H25zM26,32H27V33H26zM31,32H32V33H31zM33,32H34V33H33zM35,32H36V33H35zM38,32H39V33H38zM40,32H41V33H40zM42,32H43V33H42zM45,32H46V33H45zM47,32H48V33H47zM49,32H50V33H49zM50,32H51V33H50zM51,32H52V33H51zM52,32H53V33H52zM53,32H54V33H53zM54,32H55V33H54zM57,32H58V33H57zM62,32H63V33H62zM63,32H64V33H63zM65,32H66V33H65zM4,33H5V34H4zM7,33H8V34H7zM14,33H15V34H14zM15,33H16V34H15zM16,33H17V34H16zM17,33H18V34H17zM18,33H19V34H18zM20,33H21V34H20zM21,33H22V34H21zM22,33H23V34H22zM24,33H25V34H24zM26,33H27V34H26zM27,33H28V34H27zM28,33H29V34H28zM32,33H33V34H32zM33,33H34V34H33zM35,33H36V34H35zM37,33H38V34H37zM39,33H40V34H39zM43,33H44V34H43zM44,33H45V34H44zM45,33H46V34H45zM46,33H47V34H46zM48,33H49V34H48zM49,33H50V34H49zM50,33H51V34H50zM54,33H55V34H54zM55,33H56V34H55zM56,33H57V34H56zM60,33H61V34H60zM63,33H64V34H63zM68,33H69V34H68zM4,34H5V35H4zM8,34H9V35H8zM9,34H10V35H9zM10,34H11V35H10zM11,34H12V35H11zM12,34H13V35H12zM13,34H14V35H13zM14,34H15V35H14zM15,34H16V35H15zM16,34H17V35H16zM18,34H19V35H18zM20,34H21V35H20zM21,34H22V35H21zM22,34H23V35H22zM24,34H25V35H24zM25,34H26V35H25zM26,34H27V35H26zM27,34H28V35H27zM31,34H32V35H31zM32,34H33V35H32zM33,34H34V35H33zM34,34H35V35H34zM35,34H36V35H35zM36,34H37V35H36zM37,34H38V35H37zM38,34H39V35H38zM40,34H41V35H40zM42,34H43V35H42zM43,34H44V35H43zM45,34H46V35H45zM49,34H50V35H49zM51,34H52V35H51zM53,34H54V35H53zM56,34H57V35H56zM57,34H58V35H57zM58,34H59V35H58zM59,34H60V35H59zM60,34H61V35H60zM61,34H62V35H61zM62,34H63V35H62zM63,34H64V35H63zM64,34H65V35H64zM65,34H66V35H65zM66,34H67V35H66zM67,34H68V35H67zM5,35H6V36H5zM6,35H7V36H6zM7,35H8V36H7zM8,35H9V36H8zM12,35H13V36H12zM14,35H15V36H14zM15,35H16V36H15zM16,35H17V36H16zM17,35H18V36H17zM18,35H19V36H18zM19,35H20V36H19zM20,35H21V36H20zM22,35H23V36H22zM23,35H24V36H23zM24,35H25V36H24zM25,35H26V36H25zM29,35H30V36H29zM30,35H31V36H30zM32,35H33V36H32zM34,35H35V36H34zM38,35H39V36H38zM39,35H40V36H39zM40,35H41V36H40zM46,35H47V36H46zM49,35H50V36H49zM51,35H52V36H51zM54,35H55V36H54zM55,35H56V36H55zM56,35H57V36H56zM60,35H61V36H60zM64,35H65V36H64zM65,35H66V36H65zM67,35H68V36H67zM4,36H5V37H4zM6,36H7V37H6zM7,36H8V37H7zM8,36H9V37H8zM10,36H11V37H10zM12,36H13V37H12zM13,36H14V37H13zM16,36H17V37H16zM19,36H20V37H19zM22,36H23V37H22zM23,36H24V37H23zM25,36H26V37H25zM29,36H30V37H29zM32,36H33V37H32zM33,36H34V37H33zM34,36H35V37H34zM36,36H37V37H36zM38,36H39V37H38zM40,36H41V37H40zM41,36H42V37H41zM43,36H44V37H43zM45,36H46V37H45zM46,36H47V37H46zM50,36H51V37H50zM51,36H52V37H51zM52,36H53V37H52zM53,36H54V37H53zM54,36H55V37H54zM55,36H56V37H55zM56,36H57V37H56zM57,36H58V37H57zM60,36H61V37H60zM62,36H63V37H62zM64,36H65V37H64zM65,36H66V37H65zM66,36H67V37H66zM67,36H68V37H67zM6,37H7V38H6zM8,37H9V38H8zM12,37H13V38H12zM15,37H16V38H15zM17,37H18V38H17zM19,37H20V38H19zM23,37H24V38H23zM24,37H25V38H24zM25,37H26V38H25zM27,37H28V38H27zM29,37H30V38H29zM33,37H34V38H33zM34,37H35V38H34zM38,37H39V38H38zM39,37H40V38H39zM40,37H41V38H40zM46,37H47V38H46zM49,37H50V38H49zM51,37H52V38H51zM54,37H55V38H54zM56,37H57V38H56zM59,37H60V38H59zM60,37H61V38H60zM64,37H65V38H64zM67,37H68V38H67zM4,38H5V39H4zM6,38H7V39H6zM8,38H9V39H8zM9,38H10V39H9zM10,38H11V39H10zM11,38H12V39H11zM12,38H13V39H12zM13,38H14V39H13zM15,38H16V39H15zM16,38H17V39H16zM18,38H19V39H18zM19,38H20V39H19zM23,38H24V39H23zM25,38H26V39H25zM27,38H28V39H27zM28,38H29V39H28zM29,38H30V39H29zM30,38H31V39H30zM32,38H33V39H32zM34,38H35V39H34zM35,38H36V39H35zM36,38H37V39H36zM37,38H38V39H37zM38,38H39V39H38zM40,38H41V39H40zM41,38H42V39H41zM43,38H44V39H43zM45,38H46V39H45zM46,38H47V39H46zM48,38H49V39H48zM49,38H50V39H49zM50,38H51V39H50zM53,38H54V39H53zM55,38H56V39H55zM56,38H57V39H56zM60,38H61V39H60zM61,38H62V39H61zM62,38H63V39H62zM63,38H64V39H63zM64,38H65V39H64zM65,38H66V39H65zM68,38H69V39H68zM11,39H12V40H11zM13,39H14V40H13zM14,39H15V40H14zM16,39H17V40H16zM20,39H21V40H20zM21,39H22V40H21zM22,39H23V40H22zM23,39H24V40H23zM25,39H26V40H25zM26,39H27V40H26zM27,39H28V40H27zM30,39H31V40H30zM31,39H32V40H31zM32,39H33V40H32zM33,39H34V40H33zM34,39H35V40H34zM35,39H36V40H35zM38,39H39V40H38zM41,39H42V40H41zM42,39H43V40H42zM44,39H45V40H44zM47,39H48V40H47zM48,39H49V40H48zM49,39H50V40H49zM51,39H52V40H51zM55,39H56V40H55zM56,39H57V40H56zM57,39H58V40H57zM59,39H60V40H59zM60,39H61V40H60zM61,39H62V40H61zM62,39H63V40H62zM63,39H64V40H63zM68,39H69V40H68zM6,40H7V41H6zM8,40H9V41H8zM10,40H11V41H10zM15,40H16V41H15zM18,40H19V41H18zM19,40H20V41H19zM21,40H22V41H21zM23,40H24V41H23zM24,40H25V41H24zM28,40H29V41H28zM29,40H30V41H29zM30,40H31V41H30zM31,40H32V41H31zM32,40H33V41H32zM34,40H35V41H34zM36,40H37V41H36zM37,40H38V41H37zM38,40H39V41H38zM41,40H42V41H41zM42,40H43V41H42zM45,40H46V41H45zM46,40H47V41H46zM47,40H48V41H47zM50,40H51V41H50zM51,40H52V41H51zM52,40H53V41H52zM53,40H54V41H53zM54,40H55V41H54zM55,40H56V41H55zM57,40H58V41H57zM60,40H61V41H60zM61,40H62V41H61zM64,40H65V41H64zM65,40H66V41H65zM66,40H67V41H66zM67,40H68V41H67zM6,41H7V42H6zM7,41H8V42H7zM8,41H9V42H8zM9,41H10V42H9zM11,41H12V42H11zM12,41H13V42H12zM17,41H18V42H17zM18,41H19V42H18zM19,41H20V42H19zM21,41H22V42H21zM23,41H24V42H23zM31,41H32V42H31zM36,41H37V42H36zM39,41H40V42H39zM44,41H45V42H44zM46,41H47V42H46zM47,41H48V42H47zM48,41H49V42H48zM51,41H52V42H51zM56,41H57V42H56zM58,41H59V42H58zM60,41H61V42H60zM62,41H63V42H62zM63,41H64V42H63zM64,41H65V42H64zM66,41H67V42H66zM67,41H68V42H67zM68,41H69V42H68zM4,42H5V43H4zM6,42H7V43H6zM9,42H10V43H9zM10,42H11V43H10zM13,42H14V43H13zM15,42H16V43H15zM17,42H18V43H17zM20,42H21V43H20zM26,42H27V43H26zM27,42H28V43H27zM30,42H31V43H30zM32,42H33V43H32zM33,42H34V43H33zM38,42H39V43H38zM41,42H42V43H41zM42,42H43V43H42zM43,42H44V43H43zM44,42H45V43H44zM50,42H51V43H50zM54,42H55V43H54zM55,42H56V43H55zM59,42H60V43H59zM60,42H61V43H60zM61,42H62V43H61zM65,42H66V43H65zM67,42H68V43H67zM68,42H69V43H68zM5,43H6V44H5zM6,43H7V44H6zM7,43H8V44H7zM11,43H12V44H11zM13,43H14V44H13zM15,43H16V44H15zM16,43H17V44H16zM18,43H19V44H18zM20,43H21V44H20zM25,43H26V44H25zM26,43H27V44H26zM27,43H28V44H27zM28,43H29V44H28zM30,43H31V44H30zM31,43H32V44H31zM33,43H34V44H33zM37,43H38V44H37zM38,43H39V44H38zM41,43H42V44H41zM44,43H45V44H44zM45,43H46V44H45zM48,43H49V44H48zM50,43H51V44H50zM52,43H53V44H52zM55,43H56V44H55zM56,43H57V44H56zM57,43H58V44H57zM58,43H59V44H58zM59,43H60V44H59zM61,43H62V44H61zM62,43H63V44H62zM63,43H64V44H63zM65,43H66V44H65zM68,43H69V44H68zM6,44H7V45H6zM7,44H8V45H7zM8,44H9V45H8zM9,44H10V45H9zM10,44H11V45H10zM11,44H12V45H11zM14,44H15V45H14zM15,44H16V45H15zM17,44H18V45H17zM18,44H19V45H18zM21,44H22V45H21zM22,44H23V45H22zM25,44H26V45H25zM27,44H28V45H27zM30,44H31V45H30zM31,44H32V45H31zM32,44H33V45H32zM33,44H34V45H33zM34,44H35V45H34zM36,44H37V45H36zM37,44H38V45H37zM41,44H42V45H41zM42,44H43V45H42zM48,44H49V45H48zM50,44H51V45H50zM51,44H52V45H51zM52,44H53V45H52zM53,44H54V45H53zM54,44H55V45H54zM56,44H57V45H56zM57,44H58V45H57zM58,44H59V45H58zM60,44H61V45H60zM61,44H62V45H61zM62,44H63V45H62zM63,44H64V45H63zM65,44H66V45H65zM66,44H67V45H66zM67,44H68V45H67zM68,44H69V45H68zM4,45H5V46H4zM6,45H7V46H6zM7,45H8V46H7zM9,45H10V46H9zM13,45H14V46H13zM14,45H15V46H14zM15,45H16V46H15zM18,45H19V46H18zM19,45H20V46H19zM25,45H26V46H25zM28,45H29V46H28zM30,45H31V46H30zM31,45H32V46H31zM32,45H33V46H32zM33,45H34V46H33zM34,45H35V46H34zM35,45H36V46H35zM39,45H40V46H39zM41,45H42V46H41zM44,45H45V46H44zM45,45H46V46H45zM47,45H48V46H47zM48,45H49V46H48zM49,45H50V46H49zM51,45H52V46H51zM57,45H58V46H57zM58,45H59V46H58zM59,45H60V46H59zM63,45H64V46H63zM64,45H65V46H64zM66,45H67V46H66zM68,45H69V46H68zM4,46H5V47H4zM5,46H6V47H5zM8,46H9V47H8zM10,46H11V47H10zM12,46H13V47H12zM14,46H15V47H14zM15,46H16V47H15zM19,46H20V47H19zM21,46H22V47H21zM23,46H24V47H23zM24,46H25V47H24zM25,46H26V47H25zM27,46H28V47H27zM28,46H29V47H28zM32,46H33V47H32zM33,46H34V47H33zM34,46H35V47H34zM35,46H36V47H35zM37,46H38V47H37zM40,46H41V47H40zM42,46H43V47H42zM43,46H44V47H43zM44,46H45V47H44zM46,46H47V47H46zM50,46H51V47H50zM52,46H53V47H52zM54,46H55V47H54zM55,46H56V47H55zM57,46H58V47H57zM60,46H61V47H60zM64,46H65V47H64zM65,46H66V47H65zM67,46H68V47H67zM4,47H5V48H4zM6,47H7V48H6zM8,47H9V48H8zM9,47H10V48H9zM11,47H12V48H11zM13,47H14V48H13zM15,47H16V48H15zM17,47H18V48H17zM19,47H20V48H19zM21,47H22V48H21zM24,47H25V48H24zM25,47H26V48H25zM26,47H27V48H26zM29,47H30V48H29zM31,47H32V48H31zM32,47H33V48H32zM33,47H34V48H33zM35,47H36V48H35zM42,47H43V48H42zM44,47H45V48H44zM48,47H49V48H48zM49,47H50V48H49zM52,47H53V48H52zM53,47H54V48H53zM55,47H56V48H55zM56,47H57V48H56zM57,47H58V48H57zM59,47H60V48H59zM60,47H61V48H60zM62,47H63V48H62zM63,47H64V48H63zM64,47H65V48H64zM65,47H66V48H65zM66,47H67V48H66zM4,48H5V49H4zM5,48H6V49H5zM6,48H7V49H6zM9,48H10V49H9zM10,48H11V49H10zM13,48H14V49H13zM14,48H15V49H14zM15,48H16V49H15zM16,48H17V49H16zM17,48H18V49H17zM21,48H22V49H21zM25,48H26V49H25zM26,48H27V49H26zM27,48H28V49H27zM31,48H32V49H31zM34,48H35V49H34zM37,48H38V49H37zM41,48H42V49H41zM42,48H43V49H42zM45,48H46V49H45zM46,48H47V49H46zM48,48H49V49H48zM49,48H50V49H49zM50,48H51V49H50zM51,48H52V49H51zM52,48H53V49H52zM55,48H56V49H55zM56,48H57V49H56zM57,48H58V49H57zM60,48H61V49H60zM61,48H62V49H61zM66,48H67V49H66zM67,48H68V49H67zM68,48H69V49H68zM6,49H7V50H6zM7,49H8V50H7zM8,49H9V50H8zM15,49H16V50H15zM16,49H17V50H16zM17,49H18V50H17zM20,49H21V50H20zM21,49H22V50H21zM23,49H24V50H23zM24,49H25V50H24zM25,49H26V50H25zM27,49H28V50H27zM28,49H29V50H28zM29,49H30V50H29zM31,49H32V50H31zM32,49H33V50H32zM33,49H34V50H33zM35,49H36V50H35zM36,49H37V50H36zM37,49H38V50H37zM38,49H39V50H38zM39,49H40V50H39zM44,49H45V50H44zM45,49H46V50H45zM46,49H47V50H46zM47,49H48V50H47zM48,49H49V50H48zM51,49H52V50H51zM53,49H54V50H53zM56,49H57V50H56zM58,49H59V50H58zM62,49H63V50H62zM63,49H64V50H63zM67,49H68V50H67zM68,49H69V50H68zM4,50H5V51H4zM5,50H6V51H5zM8,50H9V51H8zM10,50H11V51H10zM13,50H14V51H13zM15,50H16V51H15zM17,50H18V51H17zM18,50H19V51H18zM19,50H20V51H19zM20,50H21V51H20zM21,50H22V51H21zM24,50H25V51H24zM25,50H26V51H25zM27,50H28V51H27zM28,50H29V51H28zM30,50H31V51H30zM36,50H37V51H36zM43,50H44V51H43zM44,50H45V51H44zM45,50H46V51H45zM46,50H47V51H46zM49,50H50V51H49zM52,50H53V51H52zM53,50H54V51H53zM55,50H56V51H55zM59,50H60V51H59zM60,50H61V51H60zM61,50H62V51H61zM62,50H63V51H62zM63,50H64V51H63zM64,50H65V51H64zM65,50H66V51H65zM66,50H67V51H66zM67,50H68V51H67zM68,50H69V51H68zM8,51H9V52H8zM11,51H12V52H11zM12,51H13V52H12zM13,51H14V52H13zM14,51H15V52H14zM15,51H16V52H15zM18,51H19V52H18zM20,51H21V52H20zM23,51H24V52H23zM24,51H25V52H24zM25,51H26V52H25zM26,51H27V52H26zM30,51H31V52H30zM32,51H33V52H32zM35,51H36V52H35zM36,51H37V52H36zM37,51H38V52H37zM38,51H39V52H38zM40,51H41V52H40zM41,51H42V52H41zM45,51H46V52H45zM48,51H49V52H48zM49,51H50V52H49zM50,51H51V52H50zM51,51H52V52H51zM56,51H57V52H56zM58,51H59V52H58zM68,51H69V52H68zM4,52H5V53H4zM7,52H8V53H7zM8,52H9V53H8zM9,52H10V53H9zM10,52H11V53H10zM12,52H13V53H12zM13,52H14V53H13zM21,52H22V53H21zM23,52H24V53H23zM26,52H27V53H26zM29,52H30V53H29zM31,52H32V53H31zM32,52H33V53H32zM33,52H34V53H33zM35,52H36V53H35zM36,52H37V53H36zM37,52H38V53H37zM38,52H39V53H38zM39,52H40V53H39zM42,52H43V53H42zM43,52H44V53H43zM46,52H47V53H46zM49,52H50V53H49zM51,52H52V53H51zM52,52H53V53H52zM56,52H57V53H56zM58,52H59V53H58zM59,52H60V53H59zM60,52H61V53H60zM61,52H62V53H61zM63,52H64V53H63zM66,52H67V53H66zM67,52H68V53H67zM5,53H6V54H5zM6,53H7V54H6zM8,53H9V54H8zM9,53H10V54H9zM12,53H13V54H12zM13,53H14V54H13zM14,53H15V54H14zM15,53H16V54H15zM16,53H17V54H16zM18,53H19V54H18zM20,53H21V54H20zM23,53H24V54H23zM24,53H25V54H24zM26,53H27V54H26zM27,53H28V54H27zM29,53H30V54H29zM30,53H31V54H30zM31,53H32V54H31zM38,53H39V54H38zM40,53H41V54H40zM44,53H45V54H44zM46,53H47V54H46zM47,53H48V54H47zM48,53H49V54H48zM52,53H53V54H52zM53,53H54V54H53zM55,53H56V54H55zM59,53H60V54H59zM61,53H62V54H61zM64,53H65V54H64zM66,53H67V54H66zM67,53H68V54H67zM68,53H69V54H68zM5,54H6V55H5zM7,54H8V55H7zM8,54H9V55H8zM9,54H10V55H9zM10,54H11V55H10zM13,54H14V55H13zM14,54H15V55H14zM16,54H17V55H16zM18,54H19V55H18zM19,54H20V55H19zM21,54H22V55H21zM22,54H23V55H22zM25,54H26V55H25zM27,54H28V55H27zM29,54H30V55H29zM32,54H33V55H32zM35,54H36V55H35zM37,54H38V55H37zM38,54H39V55H38zM39,54H40V55H39zM40,54H41V55H40zM41,54H42V55H41zM43,54H44V55H43zM45,54H46V55H45zM46,54H47V55H46zM51,54H52V55H51zM55,54H56V55H55zM56,54H57V55H56zM57,54H58V55H57zM58,54H59V55H58zM63,54H64V55H63zM64,54H65V55H64zM68,54H69V55H68zM4,55H5V56H4zM5,55H6V56H5zM6,55H7V56H6zM7,55H8V56H7zM8,55H9V56H8zM11,55H12V56H11zM13,55H14V56H13zM16,55H17V56H16zM19,55H20V56H19zM21,55H22V56H21zM23,55H24V56H23zM24,55H25V56H24zM26,55H27V56H26zM36,55H37V56H36zM38,55H39V56H38zM43,55H44V56H43zM47,55H48V56H47zM49,55H50V56H49zM50,55H51V56H50zM54,55H55V56H54zM55,55H56V56H55zM58,55H59V56H58zM62,55H63V56H62zM65,55H66V56H65zM67,55H68V56H67zM4,56H5V57H4zM9,56H10V57H9zM10,56H11V57H10zM11,56H12V57H11zM13,56H14V57H13zM15,56H16V57H15zM16,56H17V57H16zM17,56H18V57H17zM19,56H20V57H19zM20,56H21V57H20zM21,56H22V57H21zM23,56H24V57H23zM24,56H25V57H24zM25,56H26V57H25zM27,56H28V57H27zM29,56H30V57H29zM33,56H34V57H33zM34,56H35V57H34zM38,56H39V57H38zM39,56H40V57H39zM40,56H41V57H40zM41,56H42V57H41zM42,56H43V57H42zM43,56H44V57H43zM44,56H45V57H44zM45,56H46V57H45zM47,56H48V57H47zM48,56H49V57H48zM50,56H51V57H50zM53,56H54V57H53zM58,56H59V57H58zM60,56H61V57H60zM65,56H66V57H65zM66,56H67V57H66zM4,57H5V58H4zM6,57H7V58H6zM13,57H14V58H13zM14,57H15V58H14zM15,57H16V58H15zM18,57H19V58H18zM20,57H21V58H20zM21,57H22V58H21zM27,57H28V58H27zM28,57H29V58H28zM29,57H30V58H29zM32,57H33V58H32zM35,57H36V58H35zM37,57H38V58H37zM38,57H39V58H38zM41,57H42V58H41zM44,57H45V58H44zM45,57H46V58H45zM46,57H47V58H46zM47,57H48V58H47zM53,57H54V58H53zM55,57H56V58H55zM56,57H57V58H56zM58,57H59V58H58zM59,57H60V58H59zM65,57H66V58H65zM66,57H67V58H66zM6,58H7V59H6zM7,58H8V59H7zM9,58H10V59H9zM10,58H11V59H10zM11,58H12V59H11zM14,58H15V59H14zM15,58H16V59H15zM17,58H18V59H17zM19,58H20V59H19zM20,58H21V59H20zM23,58H24V59H23zM26,58H27V59H26zM28,58H29V59H28zM34,58H35V59H34zM35,58H36V59H35zM36,58H37V59H36zM40,58H41V59H40zM41,58H42V59H41zM42,58H43V59H42zM43,58H44V59H43zM45,58H46V59H45zM49,58H50V59H49zM50,58H51V59H50zM51,58H52V59H51zM52,58H53V59H52zM53,58H54V59H53zM54,58H55V59H54zM56,58H57V59H56zM58,58H59V59H58zM63,58H64V59H63zM65,58H66V59H65zM66,58H67V59H66zM67,58H68V59H67zM4,59H5V60H4zM7,59H8V60H7zM12,59H13V60H12zM15,59H16V60H15zM17,59H18V60H17zM18,59H19V60H18zM19,59H20V60H19zM20,59H21V60H20zM21,59H22V60H21zM23,59H24V60H23zM25,59H26V60H25zM33,59H34V60H33zM34,59H35V60H34zM37,59H38V60H37zM39,59H40V60H39zM40,59H41V60H40zM42,59H43V60H42zM44,59H45V60H44zM48,59H49V60H48zM49,59H50V60H49zM50,59H51V60H50zM54,59H55V60H54zM56,59H57V60H56zM60,59H61V60H60zM61,59H62V60H61zM62,59H63V60H62zM64,59H65V60H64zM65,59H66V60H65zM5,60H6V61H5zM6,60H7V61H6zM8,60H9V61H8zM10,60H11V61H10zM11,60H12V61H11zM16,60H17V61H16zM17,60H18V61H17zM18,60H19V61H18zM19,60H20V61H19zM21,60H22V61H21zM23,60H24V61H23zM24,60H25V61H24zM27,60H28V61H27zM30,60H31V61H30zM32,60H33V61H32zM34,60H35V61H34zM35,60H36V61H35zM36,60H37V61H36zM37,60H38V61H37zM38,60H39V61H38zM41,60H42V61H41zM42,60H43V61H42zM43,60H44V61H43zM45,60H46V61H45zM50,60H51V61H50zM51,60H52V61H51zM52,60H53V61H52zM53,60H54V61H53zM55,60H56V61H55zM57,60H58V61H57zM60,60H61V61H60zM61,60H62V61H61zM62,60H63V61H62zM63,60H64V61H63zM64,60H65V61H64zM66,60H67V61H66zM68,60H69V61H68zM12,61H13V62H12zM13,61H14V62H13zM15,61H16V62H15zM16,61H17V62H16zM17,61H18V62H17zM19,61H20V62H19zM21,61H22V62H21zM22,61H23V62H22zM23,61H24V62H23zM26,61H27V62H26zM28,61H29V62H28zM33,61H34V62H33zM34,61H35V62H34zM38,61H39V62H38zM40,61H41V62H40zM42,61H43V62H42zM45,61H46V62H45zM46,61H47V62H46zM47,61H48V62H47zM53,61H54V62H53zM55,61H56V62H55zM56,61H57V62H56zM58,61H59V62H58zM59,61H60V62H59zM60,61H61V62H60zM64,61H65V62H64zM68,61H69V62H68zM4,62H5V63H4zM5,62H6V63H5zM6,62H7V63H6zM7,62H8V63H7zM8,62H9V63H8zM9,62H10V63H9zM10,62H11V63H10zM17,62H18V63H17zM18,62H19V63H18zM19,62H20V63H19zM20,62H21V63H20zM22,62H23V63H22zM23,62H24V63H23zM26,62H27V63H26zM27,62H28V63H27zM28,62H29V63H28zM30,62H31V63H30zM32,62H33V63H32zM33,62H34V63H33zM34,62H35V63H34zM36,62H37V63H36zM38,62H39V63H38zM40,62H41V63H40zM41,62H42V63H41zM43,62H44V63H43zM45,62H46V63H45zM47,62H48V63H47zM48,62H49V63H48zM49,62H50V63H49zM50,62H51V63H50zM51,62H52V63H51zM53,62H54V63H53zM54,62H55V63H54zM55,62H56V63H55zM60,62H61V63H60zM62,62H63V63H62zM64,62H65V63H64zM65,62H66V63H65zM66,62H67V63H66zM4,63H5V64H4zM10,63H11V64H10zM12,63H13V64H12zM14,63H15V64H14zM16,63H17V64H16zM18,63H19V64H18zM20,63H21V64H20zM23,63H24V64H23zM24,63H25V64H24zM26,63H27V64H26zM27,63H28V64H27zM29,63H30V64H29zM31,63H32V64H31zM33,63H34V64H33zM34,63H35V64H34zM38,63H39V64H38zM39,63H40V64H39zM44,63H45V64H44zM47,63H48V64H47zM48,63H49V64H48zM49,63H50V64H49zM54,63H55V64H54zM55,63H56V64H55zM56,63H57V64H56zM60,63H61V64H60zM64,63H65V64H64zM4,64H5V65H4zM6,64H7V65H6zM7,64H8V65H7zM8,64H9V65H8zM10,64H11V65H10zM12,64H13V65H12zM13,64H14V65H13zM14,64H15V65H14zM15,64H16V65H15zM19,64H20V65H19zM21,64H22V65H21zM25,64H26V65H25zM26,64H27V65H26zM30,64H31V65H30zM34,64H35V65H34zM35,64H36V65H35zM36,64H37V65H36zM37,64H38V65H37zM38,64H39V65H38zM39,64H40V65H39zM40,64H41V65H40zM41,64H42V65H41zM42,64H43V65H42zM45,64H46V65H45zM47,64H48V65H47zM50,64H51V65H50zM51,64H52V65H51zM52,64H53V65H52zM53,64H54V65H53zM54,64H55V65H54zM57,64H58V65H57zM60,64H61V65H60zM61,64H62V65H61zM62,64H63V65H62zM63,64H64V65H63zM64,64H65V65H64zM65,64H66V65H65zM67,64H68V65H67zM4,65H5V66H4zM6,65H7V66H6zM7,65H8V66H7zM8,65H9V66H8zM10,65H11V66H10zM12,65H13V66H12zM13,65H14V66H13zM17,65H18V66H17zM18,65H19V66H18zM22,65H23V66H22zM23,65H24V66H23zM25,65H26V66H25zM26,65H27V66H26zM30,65H31V66H30zM31,65H32V66H31zM35,65H36V66H35zM36,65H37V66H36zM37,65H38V66H37zM38,65H39V66H38zM39,65H40V66H39zM43,65H44V66H43zM44,65H45V66H44zM46,65H47V66H46zM49,65H50V66H49zM50,65H51V66H50zM53,65H54V66H53zM56,65H57V66H56zM59,65H60V66H59zM60,65H61V66H60zM63,65H64V66H63zM66,65H67V66H66zM67,65H68V66H67zM4,66H5V67H4zM6,66H7V67H6zM7,66H8V67H7zM8,66H9V67H8zM10,66H11V67H10zM12,66H13V67H12zM14,66H15V67H14zM24,66H25V67H24zM25,66H26V67H25zM26,66H27V67H26zM28,66H29V67H28zM29,66H30V67H29zM34,66H35V67H34zM35,66H36V67H35zM38,66H39V67H38zM39,66H40V67H39zM44,66H45V67H44zM45,66H46V67H45zM46,66H47V67H46zM47,66H48V67H47zM51,66H52V67H51zM56,66H57V67H56zM58,66H59V67H58zM59,66H60V67H59zM60,66H61V67H60zM61,66H62V67H61zM62,66H63V67H62zM63,66H64V67H63zM65,66H66V67H65zM66,66H67V67H66zM67,66H68V67H67zM4,67H5V68H4zM10,67H11V68H10zM13,67H14V68H13zM14,67H15V68H14zM18,67H19V68H18zM20,67H21V68H20zM22,67H23V68H22zM24,67H25V68H24zM26,67H27V68H26zM29,67H30V68H29zM30,67H31V68H30zM31,67H32V68H31zM33,67H34V68H33zM35,67H36V68H35zM36,67H37V68H36zM37,67H38V68H37zM40,67H41V68H40zM41,67H42V68H41zM42,67H43V68H42zM43,67H44V68H43zM45,67H46V68H45zM48,67H49V68H48zM49,67H50V68H49zM50,67H51V68H50zM51,67H52V68H51zM52,67H53V68H52zM54,67H55V68H54zM55,67H56V68H55zM58,67H59V68H58zM59,67H60V68H59zM61,67H62V68H61zM63,67H64V68H63zM64,67H65V68H64zM66,67H67V68H66zM67,67H68V68H67zM4,68H5V69H4zM5,68H6V69H5zM6,68H7V69H6zM7,68H8V69H7zM8,68H9V69H8zM9,68H10V69H9zM10,68H11V69H10zM12,68H13V69H12zM13,68H14V69H13zM14,68H15V69H14zM15,68H16V69H15zM17,68H18V69H17zM19,68H20V69H19zM20,68H21V69H20zM24,68H25V69H24zM25,68H26V69H25zM27,68H28V69H27zM32,68H33V69H32zM36,68H37V69H36zM37,68H38V69H37zM39,68H40V69H39zM42,68H43V69H42zM44,68H45V69H44zM47,68H48V69H47zM48,68H49V69H48zM52,68H53V69H52zM54,68H55V69H54zM55,68H56V69H55zM57,68H58V69H57zM61,68H62V69H61zM64,68H65V69H64zM66,68H67V69H66z" id="qr-path" fill="#000000" fill-opacity="1" fill-rule="nonzero" stroke="none"/></svg>