<svg width="1200" height="800" viewBox="0 0 1200 800" fill="none" xmlns="http://www.w3.org/2000/svg" role="img" aria-labelledby="title desc">
<title id="title">Абстрактная архитектурная композиция</title><desc id="desc">Геометрическая композиция в цветах сайта.</desc>
<rect width="1200" height="800" fill="#142023"/>
<path d="M86 690H1114" stroke="#A64B36" stroke-width="9"/>
<rect x="126" y="242" width="184" height="448" fill="#E4E8E7"/><rect x="342" y="142" width="214" height="548" fill="#2B626F"/><rect x="588" y="294" width="176" height="396" fill="#DDE5E3"/><rect x="796" y="186" width="266" height="504" fill="#1D4650"/>
<path d="M126 342H310M126 442H310M126 542H310M342 242H556M342 342H556M342 442H556M342 542H556M588 394H764M588 494H764M796 286H1062M796 386H1062M796 486H1062M796 586H1062" stroke="#142023" stroke-width="5"/>
<path d="M84 162H666M84 162V690M1114 690V526" stroke="#9FC0C7" stroke-width="2" opacity=".72"/>
<circle cx="997" cy="162" r="28" fill="#A64B36"/>
</svg>